<svg height="20pt" viewBox="0 0 512.00122 512" width="20pt" xmlns="http://www.w3.org/2000/svg"><path d="m422.152344 225.769531 28.613281-164.109375c1.15625-6.53125-2.125-13.050781-8.058594-16.023437-172.160156-86.074219-317.253906-29.3125-373.414062 0-5.933594 2.972656-9.214844 9.492187-8.058594 16.023437l28.652344 164.308594c109.886719 18.972656 222.441406 18.765625 332.265625-.199219zm0 0"/><path d="m511.546875 282.367188c-2.007813-8.042969-10.226563-12.980469-18.179687-10.914063-26.789063 6.695313-54.902344 11.800781-82.132813 16.175781l5.398437-30.582031c-53.1875 8.59375-106.898437 13.425781-160.691406 13.425781-53.730468 0-107.410156-4.75-160.554687-13.335937l5.378906 30.492187c-27.226563-4.375-55.34375-9.480468-82.132813-16.175781-8.054687-2.09375-16.183593 2.855469-18.175781 10.914063-2.023437 8.027343 2.871094 16.171874 10.910157 18.175781 75.050781 18.765625 164.21875 29.882812 244.632812 29.882812 82.941406 0 173.03125-11.980469 244.632812-29.882812 8.039063-2.003907 12.933594-10.148438 10.914063-18.175781zm0 0"/><path d="m125.394531 366.390625c-38.933593 38.9375-38.933593 102.277344 0 141.210937 2.855469 2.855469 6.695313 4.394532 10.605469 4.394532 1.582031 0 3.195312-.246094 4.746094-.773438l70.253906-23.417968v-101.613282l-70.253906-23.417968c-5.402344-1.84375-11.351563-.378907-15.351563 3.617187zm0 0"/><path d="m241 392h30v89.996094h-30zm0 0"/><path d="m371.253906 362.773438-70.253906 23.417968v101.613282l70.253906 23.414062c1.554688.527344 3.164063.777344 4.746094.777344 3.910156 0 7.75-1.539063 10.605469-4.394532 38.9375-38.9375 38.9375-102.273437 0-141.210937-4.015625-3.996094-9.960938-5.460937-15.351563-3.617187zm0 0"/></svg>
